<svg xmlns="http://www.w3.org/2000/svg" xmlns:xlink="http://www.w3.org/1999/xlink" xmlns:lucid="lucid" width="1701" height="821"><g transform="translate(540.5 5200.5)" lucid:page-tab-id="0_0"><path d="M-1000-5500h2500v1500h-2500z" fill="#fff"/><path d="M-520-5172a8 8 0 0 1 8-8h204a8 8 0 0 1 8 8v4.93a17.07 17.07 0 0 1-5 12.07 17.07 17.07 0 0 1-12.07 5H-512a8 8 0 0 1-8-8z" fill="#979ea8"/><path d="M-300-5180v20l-10 10h-210" fill="none"/><path d="M-300-5180v6.67m0 6.66v6.67l-3.33 3.33m-3.34 3.34L-310-5150h-5m-5 0h-10m-5 0h-10m-5 0h-10m-5 0h-10m-5 0h-10m-5 0h-10m-5 0h-10m-5 0h-10m-5 0h-10m-5 0h-10m-5 0h-10m-5 0h-10m-5 0h-10m-5 0h-5" stroke="#3a414a" fill="none"/><path d="M-520-5172a8 8 0 0 1 8-8h1644a8 8 0 0 1 8 8v764a8 8 0 0 1-8 8H-512a8 8 0 0 1-8-8z" fill="none"/><path d="M-516-5178.9l.37-.23 1.16-.48 1.22-.3 1.25-.1h4.98m4.98 0h9.97m4.98 0h9.97m5 0h9.95m4.98 0h9.96m5 0h9.95m5 0h9.95m5 0h9.95m4.98 0h9.97m4.98 0h9.96m4.97 0h9.97m4.98 0h9.96m4.98 0h9.97m4.98 0h9.97m5 0h9.95m4.98 0h9.96m4.98 0h9.97m5 0h9.95m5 0h9.95m4.98 0h9.97m4.98 0h9.96m4.97 0h9.97m4.98 0h9.96m4.98 0h9.97m4.98 0h9.97m5 0h9.95m4.98 0h9.96m4.98 0h9.97m5 0h9.95m5 0h9.95m4.98 0h9.97m4.98 0h9.96m4.97 0h9.97m4.98 0h9.96m4.98 0h9.97m4.98 0h9.97m4.98 0h9.97m4.98 0h9.96m4.98 0h9.97m5 0h9.95m5 0h9.95m4.98 0h9.97m4.98 0h9.96m4.97 0h9.97m4.98 0h9.96m4.98 0h9.97m4.98 0h9.97m5 0h9.95m4.98 0h9.96m4.98 0h9.97m5 0h9.95m5 0h9.95m4.98 0h9.96m5 0h9.95m4.97 0h9.97m4.98 0h9.96m4.98 0h9.97m4.98 0h9.97m5 0h9.95m4.98 0h9.96m5 0h9.95m5 0h9.95m5 0h9.95m4.98 0h9.97m4.98 0h9.96m4.97 0h9.97m4.98 0h9.96m4.98 0h9.97m4.98 0h9.97m5 0h9.95m4.98 0h9.96m5 0h9.95m5 0h9.95m5 0H584m4.98 0h9.97m4.98 0h9.96m4.97 0h9.97m4.98 0h9.96m4.98 0h9.97m4.98 0h9.97m5 0h9.95m4.98 0h9.96m5 0h9.95m5 0h9.96m4.98 0h9.96m4.98 0h9.97m4.98 0h9.96m4.97 0h9.97m4.98 0h9.96m4.98 0h9.97m4.98 0h9.97m4.98 0h9.97m4.98 0h9.96m5 0h9.95m5 0h9.96m4.98 0h9.96m4.98 0h9.97m4.98 0h9.96m4.97 0h9.97m4.98 0h9.96m4.98 0h9.97m4.98 0h9.97m5 0h9.95m4.98 0h9.96m5 0h9.95m5 0h9.96m4.98 0h9.96m4.98 0h9.96m5 0h9.95m4.97 0h9.97m4.98 0h4.98l1.25.1 1.22.3 1.16.47.36.22m2.9 2.9l.23.37.48 1.16.3 1.22.1 1.25v5m0 5v9.97m0 5v9.98m0 5v10m0 4.98v9.98m0 5v10m0 5v9.98m0 5v9.98m0 5v9.98m0 5v9.98m0 5v9.98m0 5v9.98m0 5v9.98m0 5v9.98m0 5v9.98m0 5v9.98m0 5v9.98m0 5v9.98m0 5v9.98m0 5v9.98m0 5v9.98m0 5v9.98m0 5v9.98m0 5v9.98m0 5v9.98m0 5v9.98m0 5v9.98m0 5v9.98m0 5v9.98m0 5v10m0 4.98v9.98m0 5v10m0 4.98v10m0 4.98v10m0 4.98v10m0 4.98v10m0 4.98v10m0 4.98v10m0 4.98v10m0 4.98v10m0 4.98v10m0 4.98v10m0 4.98v10m0 4.98v10m0 4.98v10m0 4.98v10m0 4.98v10m0 4.98v10m0 4.98v10m0 5v9.97m0 5v9.98m0 5v5l-.1 1.25-.3 1.22-.47 1.16-.22.36m-2.9 2.9l-.37.23-1.16.48-1.22.3-1.25.1h-4.98m-4.98 0h-9.97m-4.98 0h-9.97m-5 0h-9.95m-4.98 0h-9.96m-4.98 0h-9.97m-5 0h-9.95m-5 0h-9.95m-4.98 0h-9.96m-5 0h-9.95m-4.97 0h-9.97m-4.98 0h-9.96m-4.98 0h-9.97m-4.98 0h-9.97m-5 0h-9.95m-4.98 0h-9.96m-5 0h-9.95m-5 0h-9.95m-5 0H858m-4.98 0h-9.97m-4.98 0h-9.96m-4.97 0h-9.97m-4.98 0h-9.96m-4.98 0h-9.97m-4.98 0h-9.97m-5 0h-9.95m-4.98 0h-9.96m-5 0h-9.95m-5 0h-9.96m-4.98 0h-9.96m-4.98 0h-9.97m-4.98 0h-9.96m-4.97 0h-9.97m-4.98 0h-9.96m-4.98 0h-9.97m-4.98 0h-9.97m-4.98 0h-9.97m-4.98 0h-9.96m-5 0h-9.95m-5 0h-9.96m-4.98 0h-9.96m-4.98 0h-9.97m-4.98 0h-9.96m-4.97 0h-9.97m-4.98 0h-9.96m-4.98 0h-9.97m-4.98 0h-9.97m-4.98 0h-9.97m-4.98 0h-9.96m-5 0h-9.95m-5 0h-9.95m-5 0h-9.95m-4.98 0h-9.96m-5 0h-9.95m-4.97 0h-9.97m-4.98 0h-9.96m-4.98 0h-9.97m-4.98 0h-9.97m-5 0h-9.95m-4.98 0h-9.96m-5 0h-9.95m-5 0h-9.96m-4.98 0h-9.96m-4.98 0h-9.96m-5 0h-9.95m-4.97 0h-9.97m-4.98 0h-9.96m-4.98 0h-9.97m-4.98 0h-9.97m-4.98 0h-9.97m-4.98 0h-9.96m-4.98 0h-9.97m-5 0h-9.95m-5 0H36m-4.98 0h-9.96m-5 0H6.12m-4.97 0h-9.97m-4.98 0h-9.96m-4.98 0h-9.97m-4.98 0h-9.97m-4.98 0h-9.97m-4.98 0h-9.96m-4.98 0h-9.97m-5 0h-9.95m-5 0h-9.95m-4.98 0h-9.97m-4.98 0h-9.96m-4.97 0h-9.97m-4.98 0h-9.96m-4.98 0h-9.97m-4.98 0h-9.97m-5 0H-233m-4.98 0h-9.96m-4.98 0h-9.97m-5 0h-9.96m-4.98 0h-9.96m-4.98 0h-9.97m-4.98 0h-9.96m-4.97 0h-9.97m-4.98 0h-9.96m-4.98 0h-9.97m-4.98 0h-9.97m-4.98 0h-9.97m-4.98 0h-9.96m-5 0h-9.95m-5 0h-9.95m-5 0h-9.95m-4.98 0h-9.96m-5 0h-9.95m-4.97 0h-9.97m-4.98 0H-512l-1.25-.1-1.22-.3-1.16-.47-.36-.22m-2.9-2.9l-.23-.37-.48-1.16-.3-1.22-.1-1.25v-5m0-5v-9.97m0-5v-9.98m0-5v-10m0-4.98v-9.98m0-5v-10m0-5v-9.98m0-5v-9.98m0-5v-9.98m0-5v-9.98m0-5v-9.98m0-5v-9.98m0-5v-9.98m0-5v-9.98m0-5v-9.98m0-5v-9.98m0-5v-9.98m0-5v-9.98m0-5v-9.98m0-5v-9.98m0-5v-9.98m0-5v-9.98m0-5v-9.98m0-5v-9.98m0-5v-9.98m0-5v-9.98m0-5v-9.98m0-5v-9.98m0-5v-9.98m0-5v-10m0-4.98v-9.98m0-5v-10m0-4.98v-10m0-4.98v-10m0-4.98v-10m0-4.98v-10m0-4.98v-10m0-4.98v-10m0-4.98v-10m0-4.98v-10m0-4.98v-10m0-4.98v-10m0-4.98v-10m0-4.98v-10m0-4.98v-10m0-4.98v-10m0-4.98v-10m0-4.98v-10m0-4.98v-10m0-5v-9.97m0-5v-9.98m0-5v-5l.1-1.25.3-1.22.47-1.16.22-.36" stroke="#3a414a" fill="none"/><use xlink:href="#a" transform="matrix(1,0,0,1,-512,-5180) translate(0 18.6)"/><use xlink:href="#b" transform="matrix(1,0,0,1,-512,-5180) translate(83.95 18.6)"/><use xlink:href="#c" transform="matrix(1,0,0,1,-512,-5180) translate(108.95 18.6)"/><path d="M-260-5063.77v5.05m0 5.04v10.08m0 5.04v10.08m0 5.04v10.08m0 5.04v10.08m0 5.04v10.08m0 5.04v10.08m0 5.05v10.08m0 5.04v10.08m0 5.04v10.07m0 5.04v10.1m0 5.03v10.08m0 5.05v10.08m0 5.04v10.08m0 5.05v10.08m0 5.04v10.08m0 5.04v10.08m0 5.04v10.08m0 5.04v10.08m0 5.04v10.08m0 5.04v10.1m0 5.02v10.1m0 5.03v10.08m0 5.04v10.07m0 5.04v10.1m0 5.03v10.08m0 5.05v10.08m0 5.04v10.1m0 5.03v10.08m0 5.04v10.08m0 5.04v10.08m0 5.04v5.04M-260-5063.75v-3.52" stroke="#3a414a" fill="none"/><path d="M-259.52-4594.5h-.96v-.5h.96z" stroke="#3a414a" stroke-width=".05" fill="#3a414a"/><path d="M122.37-4986v4.9m0 4.93v9.82m0 4.92v9.83m0 4.9v9.84m0 4.9v9.84m0 4.9v9.84m0 4.9v9.84m0 4.9v9.84m0 4.9v9.84m0 4.9v9.84m0 4.9v9.84m0 4.9v9.84m0 4.9v9.84m0 4.92v9.82m0 4.92v9.82m0 4.92v9.82m0 4.92v9.83m0 4.9v9.84m0 4.92v9.83m0 4.9v9.84m0 4.9v9.83m0 4.9v9.84m0 4.9v9.84m0 4.92v9.83m0 4.9v9.84m0 4.9v9.83m0 4.92v9.82m0 4.92v4.9" stroke="#3a414a" fill="none"/><path d="M122.84-4986h-.95v-.5h.94zM122.84-4587.5h-.95v-.5h.94z" stroke="#3a414a" stroke-width=".05" fill="#3a414a"/><path d="M362.37-4986v4.9m0 4.93v9.82m0 4.92v9.83m0 4.9v9.84m0 4.9v9.84m0 4.9v9.84m0 4.9v9.84m0 4.9v9.84m0 4.9v9.84m0 4.9v9.84m0 4.9v9.84m0 4.9v9.84m0 4.9v9.84m0 4.92v9.82m0 4.92v9.82m0 4.92v9.82m0 4.92v9.83m0 4.9v9.84m0 4.92v9.83m0 4.9v9.84m0 4.9v9.83m0 4.9v9.84m0 4.9v9.84m0 4.92v9.83m0 4.9v9.84m0 4.9v9.83m0 4.92v9.82m0 4.92v4.9" stroke="#3a414a" fill="none"/><path d="M362.85-4986h-.96v-.5h.95zM362.85-4587.5h-.96v-.5h.95z" stroke="#3a414a" stroke-width=".05" fill="#3a414a"/><path d="M686.2-4986v4.9m0 4.93v9.82m0 4.92v9.83m0 4.9v9.84m0 4.9v9.84m0 4.9v9.84m0 4.9v9.84m0 4.9v9.84m0 4.9v9.84m0 4.9v9.84m0 4.9v9.84m0 4.9v9.84m0 4.9v9.84m0 4.92v9.82m0 4.92v9.82m0 4.92v9.82m0 4.92v9.83m0 4.9v9.84m0 4.92v9.83m0 4.9v9.84m0 4.9v9.83m0 4.9v9.84m0 4.9v9.84m0 4.92v9.83m0 4.9v9.84m0 4.9v9.83m0 4.92v9.82m0 4.92v4.9" stroke="#3a414a" fill="none"/><path d="M686.68-4986h-.94v-.5h.94zM686.68-4587.5h-.94v-.5h.94z" stroke="#3a414a" stroke-width=".05" fill="#3a414a"/><path d="M-320-4586a8 8 0 0 1 8-8h104a8 8 0 0 1 8 8v84a8 8 0 0 1-8 8h-104a8 8 0 0 1-8-8z" stroke="#3a414a" fill="#979ea8"/><use xlink:href="#d" transform="matrix(1,0,0,1,-320,-4593.999999899586) translate(36.609938273944444 55.277777776)"/><path d="M62.37-5079a8 8 0 0 1 8-8h104a8 8 0 0 1 8 8v84a8 8 0 0 1-8 8h-104a8 8 0 0 1-8-8z" stroke="#3a414a" fill="#979ea8"/><use xlink:href="#e" transform="matrix(1,0,0,1,62.370370390383414,-5087) translate(31.702530867027782 55.277777776)"/><path d="M62.37-4579a8 8 0 0 1 8-8h104a8 8 0 0 1 8 8v84a8 8 0 0 1-8 8h-104a8 8 0 0 1-8-8z" stroke="#3a414a" fill="#979ea8"/><use xlink:href="#e" transform="matrix(1,0,0,1,62.370370390383414,-4587) translate(31.702530867027782 55.277777776)"/><path d="M302.37-5079a8 8 0 0 1 8-8h104a8 8 0 0 1 8 8v84a8 8 0 0 1-8 8h-104a8 8 0 0 1-8-8z" stroke="#3a414a" fill="#979ea8"/><use xlink:href="#f" transform="matrix(1,0,0,1,302.3703703903834,-5087) translate(27.350679015611107 55.277777776)"/><path d="M302.37-4579a8 8 0 0 1 8-8h104a8 8 0 0 1 8 8v84a8 8 0 0 1-8 8h-104a8 8 0 0 1-8-8z" stroke="#3a414a" fill="#979ea8"/><use xlink:href="#f" transform="matrix(1,0,0,1,302.3703703903834,-4587) translate(27.350679015611107 55.277777776)"/><path d="M619.5-5079a8 8 0 0 1 8-8h117.42a8 8 0 0 1 8 8v84a8 8 0 0 1-8 8H627.5a8 8 0 0 1-8-8z" stroke="#3a414a" fill="#979ea8"/><use xlink:href="#g" transform="matrix(1,0,0,1,619.5000687499372,-5087) translate(56.01117284055555 55.277777776)"/><path d="M619.5-4579a8 8 0 0 1 8-8h117.42a8 8 0 0 1 8 8v84a8 8 0 0 1-8 8H627.5a8 8 0 0 1-8-8z" stroke="#3a414a" fill="#979ea8"/><use xlink:href="#g" transform="matrix(1,0,0,1,619.5000687499372,-4587) translate(56.01117284055555 55.277777776)"/><path d="M102.37-4919a8 8 0 0 1 8-8h24a8 8 0 0 1 8 8v284a8 8 0 0 1-8 8h-24a8 8 0 0 1-8-8zM342.37-4859a8 8 0 0 1 8-8h24a8 8 0 0 1 8 8v211a8 8 0 0 1-8 8h-24a8 8 0 0 1-8-8zM666.2-4852a8 8 0 0 1 8-8h24a8 8 0 0 1 8 8v97a8 8 0 0 1-8 8h-24a8 8 0 0 1-8-8z" stroke="#3a414a" fill="#979ea8"/><path d="M-259.5-4928.6l346.02 5.32M-259.5-4928.6h-.5" stroke="#3a414a" fill="none"/><path d="M101.28-4923.06l-14.33 4.42.14-9.27z" stroke="#3a414a" fill="#3a414a"/><use xlink:href="#h" transform="matrix(1,0,0,1,-156.73804455954644,-4972.432105820718) translate(0 14.217421740752478)"/><use xlink:href="#i" transform="matrix(1,0,0,1,-156.73804455954644,-4972.432105820718) translate(17.771777175940596 14.217421740752478)"/><use xlink:href="#j" transform="matrix(1,0,0,1,-156.73804455954644,-4972.432105820718) translate(79.82489914859984 14.217421740752478)"/><use xlink:href="#k" transform="matrix(1,0,0,1,-156.73804455954644,-4972.432105820718) translate(148.78926780079155 14.217421740752478)"/><use xlink:href="#l" transform="matrix(1,0,0,1,-156.73804455954644,-4972.432105820718) translate(17.771777175940596 35.5435543518812)"/><path d="M142.87-4867l183.9 3.26" stroke="#3a414a" fill="none"/><path d="M142.9-4867.47l-.03.95v-.95z" stroke="#3a414a" stroke-width=".05" fill="#3a414a"/><path d="M341.54-4863.48l-14.35 4.38.16-9.27z" stroke="#3a414a" fill="#3a414a"/><use xlink:href="#m" transform="matrix(1,0,0,1,148.2549608686606,-4895.082549679219) translate(0 14.217421740752478)"/><use xlink:href="#n" transform="matrix(1,0,0,1,148.2549608686606,-4895.082549679219) translate(29.619628626567653 14.217421740752478)"/><use xlink:href="#l" transform="matrix(1,0,0,1,148.2549608686606,-4895.082549679219) translate(104.45855695636195 14.217421740752478)"/><path d="M383.37-4842.15h265.96" stroke="#3a414a" fill="none"/><path d="M383.38-4841.68h-.5v-.95h.5z" stroke="#3a414a" stroke-width=".05" fill="#3a414a"/><path d="M664.1-4842.15l-14.27 4.63v-9.27z" stroke="#3a414a" fill="#3a414a"/><use xlink:href="#o" transform="matrix(1,0,0,1,404.5033795776724,-4888.804376382514) translate(0 14.217421740752478)"/><use xlink:href="#p" transform="matrix(1,0,0,1,404.5033795776724,-4888.804376382514) translate(4.9366047710946095 14.217421740752478)"/><use xlink:href="#q" transform="matrix(1,0,0,1,404.5033795776724,-4888.804376382514) translate(34.55623339766226 14.217421740752478)"/><use xlink:href="#r" transform="matrix(1,0,0,1,404.5033795776724,-4888.804376382514) translate(90.78416174042985 14.217421740752478)"/><use xlink:href="#s" transform="matrix(1,0,0,1,404.5033795776724,-4888.804376382514) translate(131.16558876798376 14.217421740752478)"/><use xlink:href="#t" transform="matrix(1,0,0,1,404.5033795776724,-4888.804376382514) translate(0 35.5435543518812)"/><use xlink:href="#u" transform="matrix(1,0,0,1,404.5033795776724,-4888.804376382514) translate(36.43214321067822 35.5435543518812)"/><path d="M665.2-4805.48h-4.92m-4.92 0h-9.85m-4.92 0h-9.85m-4.92 0h-9.84m-4.93 0h-9.85m-4.92 0h-9.85m-4.92 0h-9.85m-4.92 0h-9.84m-4.93 0h-9.85m-4.92 0h-9.85m-4.92 0h-9.85m-4.92 0h-9.84m-4.93 0h-9.85m-4.92 0h-9.85m-4.92 0h-9.85m-4.93 0h-9.85m-4.92 0h-9.85m-4.93 0h-9.85m-4.92 0h-4.93" stroke="#3a414a" fill="none"/><path d="M665.7-4805h-.5v-.95h.5z" stroke="#3a414a" stroke-width=".05" fill="#3a414a"/><path d="M384.5-4805.48l14.25-4.63v9.26z" stroke="#3a414a" fill="#3a414a"/><use xlink:href="#v" transform="matrix(1,0,0,1,437.5786418310465,-4830.803798173099) translate(0 14.217421740752478)"/><use xlink:href="#w" transform="matrix(1,0,0,1,437.5786418310465,-4830.803798173099) translate(29.619628626567653 14.217421740752478)"/><use xlink:href="#x" transform="matrix(1,0,0,1,437.5786418310465,-4830.803798173099) translate(91.62338455151595 14.217421740752478)"/><path d="M341.37-4649.6h-5.06m-5.05 0h-10.12m-5.05 0h-10.12m-5.06 0h-10.12m-5.06 0h-10.1m-5.07 0h-10.12m-5.06 0h-10.12m-5.06 0h-10.12m-5.06 0H214.9m-5.06 0h-10.12m-5.05 0h-10.12m-5.06 0h-10.13m-5.06 0h-5.05" stroke="#3a414a" fill="none"/><path d="M341.87-4649.13h-.5v-.94h.5z" stroke="#3a414a" stroke-width=".05" fill="#3a414a"/><path d="M144.5-4649.6l14.25-4.63v9.26z" stroke="#3a414a" fill="#3a414a"/><use xlink:href="#y" transform="matrix(1,0,0,1,161.06453686088634,-4674.926131222726) translate(0 14.217421740752478)"/><use xlink:href="#z" transform="matrix(1,0,0,1,161.06453686088634,-4674.926131222726) translate(29.619628626567653 14.217421740752478)"/><use xlink:href="#A" transform="matrix(1,0,0,1,161.06453686088634,-4674.926131222726) translate(85.74882487391338 14.217421740752478)"/><path d="M102.4-4630.97h-5.02m-5 0H82.33m-5 0H67.3m-5.02 0H52.25m-5 0H37.2m-5 0H22.15m-5 0H7.1m-5 0H-7.93m-5.02 0h-10.03m-5 0h-10.04m-5.03 0h-10.03m-5 0H-68.1m-5.02 0h-10.02m-5.02 0H-98.2m-5 0h-10.03m-5.02 0h-10.03m-5 0h-10.04m-5.02 0h-10.03m-5 0h-10.04m-5.03 0h-10.02m-5.02 0h-10.03m-5 0h-10.04m-5.02 0h-10.03m-5 0h-5.02" stroke="#3a414a" fill="none"/><path d="M102.8-4631.14l.4.65h-.8v-.94h.27z" stroke="#3a414a" stroke-width=".05" fill="#3a414a"/><path d="M-258.38-4630.97l14.26-4.64v9.27z" stroke="#3a414a" fill="#3a414a"/><use xlink:href="#B" transform="matrix(1,0,0,1,-166.7919403284804,-4656.296404005789) translate(0 14.217421740752478)"/><use xlink:href="#C" transform="matrix(1,0,0,1,-166.7919403284804,-4656.296404005789) translate(29.619628626567653 14.217421740752478)"/><use xlink:href="#A" transform="matrix(1,0,0,1,-166.7919403284804,-4656.296404005789) translate(99.6206842806892 14.217421740752478)"/><path d="M-240.25-5140.25c0 10.9-8.84 19.75-19.75 19.75-10.9 0-19.75-8.84-19.75-19.75 0-10.9 8.84-19.75 19.75-19.75 10.9 0 19.75 8.84 19.75 19.75z" stroke="#333" fill="#fff"/><path d="M-260-5120.5v47.3a27.6 27.6 0 0 0 4.28 14.76L-220-5002m-40-63.2l-40 63.2m0-98.75h80" stroke="#333" fill="none"/><path d="M-300-5152a8 8 0 0 1 8-8h64a8 8 0 0 1 8 8v164a8 8 0 0 1-8 8h-64a8 8 0 0 1-8-8z" fill="none"/><g><use xlink:href="#D" transform="matrix(1,0,0,1,-380,-5002) translate(99.28395061728395 14.555555555555555)"/></g><path d="M932.42-4986v4.9m0 4.93v9.82m0 4.92v9.83m0 4.9v9.84m0 4.9v9.84m0 4.9v9.84m0 4.9v9.84m0 4.9v9.84m0 4.9v9.84m0 4.9v9.84m0 4.9v9.84m0 4.9v9.84m0 4.9v9.84m0 4.92v9.82m0 4.92v9.82m0 4.92v9.82m0 4.92v9.83m0 4.9v9.84m0 4.92v9.83m0 4.9v9.84m0 4.9v9.83m0 4.9v9.84m0 4.9v9.84m0 4.92v9.83m0 4.9v9.84m0 4.9v9.83m0 4.92v9.82m0 4.92v4.9" stroke="#3a414a" fill="none"/><path d="M932.9-4986h-.95v-.5h.94zM932.9-4587.5h-.95v-.5h.94z" stroke="#3a414a" stroke-width=".05" fill="#3a414a"/><path d="M865.7-5079a8 8 0 0 1 8-8h117.43a8 8 0 0 1 8 8v84a8 8 0 0 1-8 8H873.7a8 8 0 0 1-8-8z" stroke="#3a414a" fill="#979ea8"/><g><use xlink:href="#E" transform="matrix(1,0,0,1,865.7100140364131,-5087) translate(19.005000004749995 55.277777776)"/></g><path d="M865.7-4579a8 8 0 0 1 8-8h117.43a8 8 0 0 1 8 8v84a8 8 0 0 1-8 8H873.7a8 8 0 0 1-8-8z" stroke="#3a414a" fill="#979ea8"/><g><use xlink:href="#E" transform="matrix(1,0,0,1,865.7100140364131,-4587) translate(19.005000004749995 55.277777776)"/></g><path d="M912.42-4739a8 8 0 0 1 8-8h24a8 8 0 0 1 8 8v91a8 8 0 0 1-8 8h-24a8 8 0 0 1-8-8z" stroke="#3a414a" fill="#979ea8"/><path d="M383.37-4712.65h5.02m5 0h10.06m5.02 0h10.04m5.02 0h10.04m5.02 0h10.05m5.02 0h10.04m5.03 0h10.04m5.03 0h10.04m5.02 0h10.04m5.02 0h10.05m5.02 0h10.03m5.02 0h10.04m5 0h10.06m5.02 0h10.04m5.02 0h10.04m5.02 0h10.05m5.02 0h10.04m5.03 0h10.04m5.03 0h10.04m5.02 0h10.04m5.02 0h10.05m5.02 0h10.03m5.02 0h10.04m5 0h10.06m5.02 0h10.04m5.02 0h10.04m5.02 0h10.05m5.02 0h10.04m5.03 0h10.04m5.03 0h10.04m5.02 0h10.04m5.02 0h10.05m5.02 0h10.03m5.02 0h10.04m5 0h5.04" stroke="#3a414a" fill="none"/><path d="M383.38-4712.17h-.5v-.95h.5z" stroke="#3a414a" stroke-width=".05" fill="#3a414a"/><path d="M910.3-4712.65l-14.26 4.64v-9.28z" stroke="#3a414a" fill="#3a414a"/><g><use xlink:href="#F" transform="matrix(1,0,0,1,497.02016399609806,-4738.245515634296) translate(0 14.4)"/><use xlink:href="#G" transform="matrix(1,0,0,1,497.02016399609806,-4738.245515634296) translate(30 14.4)"/><use xlink:href="#H" transform="matrix(1,0,0,1,497.02016399609806,-4738.245515634296) translate(76 14.4)"/><use xlink:href="#I" transform="matrix(1,0,0,1,497.02016399609806,-4738.245515634296) translate(154 14.4)"/><use xlink:href="#J" transform="matrix(1,0,0,1,497.02016399609806,-4738.245515634296) translate(189 14.4)"/><use xlink:href="#K" transform="matrix(1,0,0,1,497.02016399609806,-4738.245515634296) translate(211.95 14.4)"/></g><path d="M899.5-4674.4h-5.05m-5.06 0h-10.1m-5.06 0h-10.1m-5.06 0h-10.1m-5.06 0h-10.1m-5.06 0h-10.1m-5.06 0h-10.1m-5.06 0h-10.1m-5.06 0h-10.1m-5.06 0h-10.1m-5.06 0h-10.1m-5.06 0h-10.1m-5.06 0h-10.1m-5.05 0h-10.12m-5.05 0h-10.1m-5.06 0h-10.1m-5.06 0h-10.1m-5.05 0h-10.1m-5.06 0h-10.1m-5.07 0h-10.1m-5.06 0h-10.1m-5.05 0h-10.1m-5.06 0h-10.1m-5.06 0h-10.1m-5.06 0h-10.1m-5.06 0h-10.1m-5.06 0h-10.1m-5.06 0h-10.1m-5.06 0H470m-5.06 0h-10.1m-5.06 0h-10.1m-5.06 0h-10.1m-5.05 0h-10.1m-5.06 0h-5.05M899.5-4674.4h.5" stroke="#3a414a" fill="none"/><path d="M384.5-4674.4l14.25-4.64v9.27z" stroke="#3a414a" fill="#3a414a"/><g><use xlink:href="#L" transform="matrix(1,0,0,1,498.61017893884406,-4670.401787316386) translate(0 14.4)"/><use xlink:href="#M" transform="matrix(1,0,0,1,498.61017893884406,-4670.401787316386) translate(30 14.4)"/><use xlink:href="#N" transform="matrix(1,0,0,1,498.61017893884406,-4670.401787316386) translate(81.9 14.4)"/><use xlink:href="#O" transform="matrix(1,0,0,1,498.61017893884406,-4670.401787316386) translate(188.75 14.4)"/></g><defs><path d="M63-220v92h138v28H63V0H30v-248h175v28H63" id="P"/><path d="M100-194c63 0 86 42 84 106H49c0 40 14 67 53 68 26 1 43-12 49-29l28 8c-11 28-37 45-77 45C44 4 14-33 15-96c1-61 26-98 85-98zm52 81c6-60-76-77-97-28-3 7-6 17-6 28h103" id="Q"/><path d="M85-194c31 0 48 13 60 33l-1-100h32l1 261h-30c-2-10 0-23-3-31C134-8 116 4 85 4 32 4 16-35 15-94c0-66 23-100 70-100zm9 24c-40 0-46 34-46 75 0 40 6 74 45 74 42 0 51-32 51-76 0-42-9-74-50-73" id="R"/><path d="M115-194c53 0 69 39 70 98 0 66-23 100-70 100C84 3 66-7 56-30L54 0H23l1-261h32v101c10-23 28-34 59-34zm-8 174c40 0 45-34 45-75 0-40-5-75-45-74-42 0-51 32-51 76 0 43 10 73 51 73" id="S"/><path d="M141-36C126-15 110 5 73 4 37 3 15-17 15-53c-1-64 63-63 125-63 3-35-9-54-41-54-24 1-41 7-42 31l-33-3c5-37 33-52 76-52 45 0 72 20 72 64v82c-1 20 7 32 28 27v20c-31 9-61-2-59-35zM48-53c0 20 12 33 32 33 41-3 63-29 60-74-43 2-92-5-92 41" id="T"/><path d="M96-169c-40 0-48 33-48 73s9 75 48 75c24 0 41-14 43-38l32 2c-6 37-31 61-74 61-59 0-76-41-82-99-10-93 101-131 147-64 4 7 5 14 7 22l-32 3c-4-21-16-35-41-35" id="U"/><path d="M143 0L79-87 56-68V0H24v-261h32v163l83-92h37l-77 82L181 0h-38" id="V"/><g id="a"><use transform="matrix(0.05,0,0,0.05,0,0)" xlink:href="#P"/><use transform="matrix(0.05,0,0,0.05,10.950000000000001,0)" xlink:href="#Q"/><use transform="matrix(0.05,0,0,0.05,20.950000000000003,0)" xlink:href="#Q"/><use transform="matrix(0.05,0,0,0.05,30.950000000000003,0)" xlink:href="#R"/><use transform="matrix(0.05,0,0,0.05,40.95,0)" xlink:href="#S"/><use transform="matrix(0.05,0,0,0.05,50.95,0)" xlink:href="#T"/><use transform="matrix(0.05,0,0,0.05,60.95,0)" xlink:href="#U"/><use transform="matrix(0.05,0,0,0.05,69.95,0)" xlink:href="#V"/></g><path d="M117-194c89-4 53 116 60 194h-32v-121c0-31-8-49-39-48C34-167 62-67 57 0H25l-1-190h30c1 10-1 24 2 32 11-22 29-35 61-36" id="W"/><g id="b"><use transform="matrix(0.05,0,0,0.05,0,0)" xlink:href="#T"/><use transform="matrix(0.05,0,0,0.05,10,0)" xlink:href="#W"/></g><path d="M135-143c-3-34-86-38-87 0 15 53 115 12 119 90S17 21 10-45l28-5c4 36 97 45 98 0-10-56-113-15-118-90-4-57 82-63 122-42 12 7 21 19 24 35" id="X"/><path d="M24-231v-30h32v30H24zM24 0v-190h32V0H24" id="Y"/><path d="M177-190C167-65 218 103 67 71c-23-6-38-20-44-43l32-5c15 47 100 32 89-28v-30C133-14 115 1 83 1 29 1 15-40 15-95c0-56 16-97 71-98 29-1 48 16 59 35 1-10 0-23 2-32h30zM94-22c36 0 50-32 50-73 0-42-14-75-50-75-39 0-46 34-46 75s6 73 46 73" id="Z"/><path d="M210-169c-67 3-38 105-44 169h-31v-121c0-29-5-50-35-48C34-165 62-65 56 0H25l-1-190h30c1 10-1 24 2 32 10-44 99-50 107 0 11-21 27-35 58-36 85-2 47 119 55 194h-31v-121c0-29-5-49-35-48" id="aa"/><path d="M59-47c-2 24 18 29 38 22v24C64 9 27 4 27-40v-127H5v-23h24l9-43h21v43h35v23H59v120" id="ab"/><g id="c"><use transform="matrix(0.05,0,0,0.05,0,0)" xlink:href="#T"/><use transform="matrix(0.05,0,0,0.05,10,0)" xlink:href="#X"/><use transform="matrix(0.05,0,0,0.05,19,0)" xlink:href="#X"/><use transform="matrix(0.05,0,0,0.05,28,0)" xlink:href="#Y"/><use transform="matrix(0.05,0,0,0.05,31.950000000000003,0)" xlink:href="#Z"/><use transform="matrix(0.05,0,0,0.05,41.95,0)" xlink:href="#W"/><use transform="matrix(0.05,0,0,0.05,51.95,0)" xlink:href="#aa"/><use transform="matrix(0.05,0,0,0.05,66.9,0)" xlink:href="#Q"/><use transform="matrix(0.05,0,0,0.05,76.9,0)" xlink:href="#W"/><use transform="matrix(0.05,0,0,0.05,86.9,0)" xlink:href="#ab"/></g><path fill="#333" d="M232-93c-1 65-40 97-104 97C67 4 28-28 28-90v-158h33c8 89-33 224 67 224 102 0 64-133 71-224h33v155" id="ac"/><path fill="#333" d="M135-143c-3-34-86-38-87 0 15 53 115 12 119 90S17 21 10-45l28-5c4 36 97 45 98 0-10-56-113-15-118-90-4-57 82-63 122-42 12 7 21 19 24 35" id="ad"/><path fill="#333" d="M100-194c63 0 86 42 84 106H49c0 40 14 67 53 68 26 1 43-12 49-29l28 8c-11 28-37 45-77 45C44 4 14-33 15-96c1-61 26-98 85-98zm52 81c6-60-76-77-97-28-3 7-6 17-6 28h103" id="ae"/><path fill="#333" d="M114-163C36-179 61-72 57 0H25l-1-190h30c1 12-1 29 2 39 6-27 23-49 58-41v29" id="af"/><g id="d"><use transform="matrix(0.06172839505555555,0,0,0.06172839505555555,0,0)" xlink:href="#ac"/><use transform="matrix(0.06172839505555555,0,0,0.06172839505555555,15.987654319388888,0)" xlink:href="#ad"/><use transform="matrix(0.06172839505555555,0,0,0.06172839505555555,27.098765429388887,0)" xlink:href="#ae"/><use transform="matrix(0.06172839505555555,0,0,0.06172839505555555,39.4444444405,0)" xlink:href="#af"/></g><path fill="#333" d="M212-179c-10-28-35-45-73-45-59 0-87 40-87 99 0 60 29 101 89 101 43 0 62-24 78-52l27 14C228-24 195 4 139 4 59 4 22-46 18-125c-6-104 99-153 187-111 19 9 31 26 39 46" id="ag"/><path fill="#333" d="M24 0v-261h32V0H24" id="ah"/><path fill="#333" d="M24-231v-30h32v30H24zM24 0v-190h32V0H24" id="ai"/><path fill="#333" d="M117-194c89-4 53 116 60 194h-32v-121c0-31-8-49-39-48C34-167 62-67 57 0H25l-1-190h30c1 10-1 24 2 32 11-22 29-35 61-36" id="aj"/><path fill="#333" d="M59-47c-2 24 18 29 38 22v24C64 9 27 4 27-40v-127H5v-23h24l9-43h21v43h35v23H59v120" id="ak"/><g id="e"><use transform="matrix(0.06172839505555555,0,0,0.06172839505555555,0,0)" xlink:href="#ag"/><use transform="matrix(0.06172839505555555,0,0,0.06172839505555555,15.987654319388888,0)" xlink:href="#ah"/><use transform="matrix(0.06172839505555555,0,0,0.06172839505555555,20.864197528777776,0)" xlink:href="#ai"/><use transform="matrix(0.06172839505555555,0,0,0.06172839505555555,25.740740738166664,0)" xlink:href="#ae"/><use transform="matrix(0.06172839505555555,0,0,0.06172839505555555,38.08641974927777,0)" xlink:href="#aj"/><use transform="matrix(0.06172839505555555,0,0,0.06172839505555555,50.43209876038888,0)" xlink:href="#ak"/></g><path fill="#333" d="M185-189c-5-48-123-54-124 2 14 75 158 14 163 119 3 78-121 87-175 55-17-10-28-26-33-46l33-7c5 56 141 63 141-1 0-78-155-14-162-118-5-82 145-84 179-34 5 7 8 16 11 25" id="al"/><path fill="#333" d="M108 0H70L1-190h34L89-25l56-165h34" id="am"/><g id="f"><use transform="matrix(0.06172839505555555,0,0,0.06172839505555555,0,0)" xlink:href="#al"/><use transform="matrix(0.06172839505555555,0,0,0.06172839505555555,14.814814813333332,0)" xlink:href="#ae"/><use transform="matrix(0.06172839505555555,0,0,0.06172839505555555,27.160493824444444,0)" xlink:href="#af"/><use transform="matrix(0.06172839505555555,0,0,0.06172839505555555,34.506172836055555,0)" xlink:href="#am"/><use transform="matrix(0.06172839505555555,0,0,0.06172839505555555,45.61728394605555,0)" xlink:href="#ae"/><use transform="matrix(0.06172839505555555,0,0,0.06172839505555555,57.96296295716666,0)" xlink:href="#af"/></g><path fill="#333" d="M205 0l-28-72H64L36 0H1l101-248h38L239 0h-34zm-38-99l-47-123c-12 45-31 82-46 123h93" id="an"/><path fill="#333" d="M33 0v-248h34V0H33" id="ao"/><g id="g"><use transform="matrix(0.06172839505555555,0,0,0.06172839505555555,0,0)" xlink:href="#an"/><use transform="matrix(0.06172839505555555,0,0,0.06172839505555555,14.814814813333332,0)" xlink:href="#ao"/></g><path fill="#3a414a" d="M23 0v-37h61v-169l-59 37v-38l62-41h46v211h57V0H23" id="ap"/><path fill="#3a414a" d="M24 0v-54h51V0H24" id="aq"/><g id="h"><use transform="matrix(0.0493660477109461,0,0,0.0493660477109461,0,0)" xlink:href="#ap"/><use transform="matrix(0.0493660477109461,0,0,0.0493660477109461,9.873209542189219,0)" xlink:href="#aq"/></g><path fill="#3a414a" d="M24 0v-248h52V0H24" id="ar"/><path fill="#3a414a" d="M135-194c87-1 58 113 63 194h-50c-7-57 23-157-34-157-59 0-34 97-39 157H25l-1-190h47c2 12-1 28 3 38 12-26 28-41 61-42" id="as"/><path fill="#3a414a" d="M25-224v-37h50v37H25zM25 0v-190h50V0H25" id="at"/><path fill="#3a414a" d="M115-3C79 11 28 4 28-45v-112H4v-33h27l15-45h31v45h36v33H77v99c-1 23 16 31 38 25v30" id="au"/><path fill="#3a414a" d="M133-34C117-15 103 5 69 4 32 3 11-16 11-54c-1-60 55-63 116-61 1-26-3-47-28-47-18 1-26 9-28 27l-52-2c7-38 36-58 82-57s74 22 75 68l1 82c-1 14 12 18 25 15v27c-30 8-71 5-69-32zm-48 3c29 0 43-24 42-57-32 0-66-3-65 30 0 17 8 27 23 27" id="av"/><path fill="#3a414a" d="M185-48c-13 30-37 53-82 52C43 2 14-33 14-96s30-98 90-98c62 0 83 45 84 108H66c0 31 8 55 39 56 18 0 30-7 34-22zm-45-69c5-46-57-63-70-21-2 6-4 13-4 21h74" id="aw"/><g id="i"><use transform="matrix(0.0493660477109461,0,0,0.0493660477109461,0,0)" xlink:href="#ar"/><use transform="matrix(0.0493660477109461,0,0,0.0493660477109461,4.9366047710946095,0)" xlink:href="#as"/><use transform="matrix(0.0493660477109461,0,0,0.0493660477109461,15.747769219791804,0)" xlink:href="#at"/><use transform="matrix(0.0493660477109461,0,0,0.0493660477109461,20.684373990886414,0)" xlink:href="#au"/><use transform="matrix(0.0493660477109461,0,0,0.0493660477109461,26.558933668488994,0)" xlink:href="#at"/><use transform="matrix(0.0493660477109461,0,0,0.0493660477109461,31.495538439583605,0)" xlink:href="#av"/><use transform="matrix(0.0493660477109461,0,0,0.0493660477109461,41.36874798177283,0)" xlink:href="#au"/><use transform="matrix(0.0493660477109461,0,0,0.0493660477109461,47.24330765937541,0)" xlink:href="#aw"/></g><path fill="#3a414a" d="M135-150c-39-12-60 13-60 57V0H25l-1-190h47c2 13-1 29 3 40 6-28 27-53 61-41v41" id="ax"/><path fill="#3a414a" d="M84 4C32 4 15-41 15-95c0-55 18-99 73-99 29 0 47 12 58 34l2-30h48l-1 265h-49V-32C136-9 114 4 84 4zm21-34c32 0 41-29 41-66 0-36-9-64-40-64-33 0-39 30-40 65 0 43 13 65 39 65" id="ay"/><path fill="#3a414a" d="M85 4C-2 5 27-109 22-190h50c7 57-23 150 33 157 60-5 35-97 40-157h50l1 190h-47c-2-12 1-28-3-38-12 25-28 42-61 42" id="az"/><path fill="#3a414a" d="M137-138c1-29-70-34-71-4 15 46 118 7 119 86 1 83-164 76-172 9l43-7c4 19 20 25 44 25 33 8 57-30 24-41C81-84 22-81 20-136c-2-80 154-74 161-7" id="aA"/><g id="j"><use transform="matrix(0.0493660477109461,0,0,0.0493660477109461,0,0)" xlink:href="#ax"/><use transform="matrix(0.0493660477109461,0,0,0.0493660477109461,6.911246679532454,0)" xlink:href="#aw"/><use transform="matrix(0.0493660477109461,0,0,0.0493660477109461,16.784456221721673,0)" xlink:href="#ay"/><use transform="matrix(0.0493660477109461,0,0,0.0493660477109461,27.595620670418867,0)" xlink:href="#az"/><use transform="matrix(0.0493660477109461,0,0,0.0493660477109461,38.406785119116066,0)" xlink:href="#aw"/><use transform="matrix(0.0493660477109461,0,0,0.0493660477109461,48.27999466130528,0)" xlink:href="#aA"/><use transform="matrix(0.0493660477109461,0,0,0.0493660477109461,58.153204203494504,0)" xlink:href="#au"/></g><path fill="#3a414a" d="M231 0h-52l-39-155L100 0H48L-1-190h46L77-45c9-52 24-97 36-145h53l37 145 32-145h46" id="aB"/><path fill="#3a414a" d="M114-157C55-157 80-60 75 0H25v-261h50l-1 109c12-26 28-41 61-42 86-1 58 113 63 194h-50c-7-57 23-157-34-157" id="aC"/><g id="k"><use transform="matrix(0.0493660477109461,0,0,0.0493660477109461,0,0)" xlink:href="#aB"/><use transform="matrix(0.0493660477109461,0,0,0.0493660477109461,13.822493359064907,0)" xlink:href="#at"/><use transform="matrix(0.0493660477109461,0,0,0.0493660477109461,18.759098130159515,0)" xlink:href="#au"/><use transform="matrix(0.0493660477109461,0,0,0.0493660477109461,24.6336578077621,0)" xlink:href="#aC"/></g><path fill="#3a414a" d="M195-6C206 82 75 100 31 46c-4-6-6-13-8-21l49-6c3 16 16 24 34 25 40 0 42-37 40-79-11 22-30 35-61 35-53 0-70-43-70-97 0-56 18-96 73-97 30 0 46 14 59 34l2-30h47zm-90-29c32 0 41-27 41-63 0-35-9-62-40-62-32 0-39 29-40 63 0 36 9 62 39 62" id="aD"/><path fill="#3a414a" d="M220-157c-53 9-28 100-34 157h-49v-107c1-27-5-49-29-50C55-147 81-57 75 0H25l-1-190h47c2 12-1 28 3 38 10-53 101-56 108 0 13-22 24-43 59-42 82 1 51 116 57 194h-49v-107c-1-25-5-48-29-50" id="aE"/><g id="l"><use transform="matrix(0.0493660477109461,0,0,0.0493660477109461,0,0)" xlink:href="#av"/><use transform="matrix(0.0493660477109461,0,0,0.0493660477109461,9.873209542189219,0)" xlink:href="#aA"/><use transform="matrix(0.0493660477109461,0,0,0.0493660477109461,19.746419084378438,0)" xlink:href="#aA"/><use transform="matrix(0.0493660477109461,0,0,0.0493660477109461,29.619628626567657,0)" xlink:href="#at"/><use transform="matrix(0.0493660477109461,0,0,0.0493660477109461,34.55623339766227,0)" xlink:href="#aD"/><use transform="matrix(0.0493660477109461,0,0,0.0493660477109461,45.36739784635947,0)" xlink:href="#as"/><use transform="matrix(0.0493660477109461,0,0,0.0493660477109461,56.17856229505667,0)" xlink:href="#aE"/><use transform="matrix(0.0493660477109461,0,0,0.0493660477109461,71.97569756255942,0)" xlink:href="#aw"/><use transform="matrix(0.0493660477109461,0,0,0.0493660477109461,81.84890710474863,0)" xlink:href="#as"/><use transform="matrix(0.0493660477109461,0,0,0.0493660477109461,92.66007155344583,0)" xlink:href="#au"/><use transform="matrix(0.0493660477109461,0,0,0.0493660477109461,98.53463123104842,0)" xlink:href="#aA"/></g><g id="m"><use transform="matrix(0.0493660477109461,0,0,0.0493660477109461,0,0)" xlink:href="#ap"/><use transform="matrix(0.0493660477109461,0,0,0.0493660477109461,9.873209542189219,0)" xlink:href="#aq"/><use transform="matrix(0.0493660477109461,0,0,0.0493660477109461,14.809814313283828,0)" xlink:href="#ap"/></g><path fill="#3a414a" d="M240-174c0 40-23 61-54 70L253 0h-59l-57-94H76V0H24v-248c93 4 217-23 216 74zM76-134c48-2 112 12 112-38 0-48-66-32-112-35v73" id="aF"/><g id="n"><use transform="matrix(0.0493660477109461,0,0,0.0493660477109461,0,0)" xlink:href="#aF"/><use transform="matrix(0.0493660477109461,0,0,0.0493660477109461,12.785806357135039,0)" xlink:href="#aw"/><use transform="matrix(0.0493660477109461,0,0,0.0493660477109461,22.65901589932426,0)" xlink:href="#ay"/><use transform="matrix(0.0493660477109461,0,0,0.0493660477109461,33.47018034802146,0)" xlink:href="#az"/><use transform="matrix(0.0493660477109461,0,0,0.0493660477109461,44.281344796718656,0)" xlink:href="#aw"/><use transform="matrix(0.0493660477109461,0,0,0.0493660477109461,54.15455433890787,0)" xlink:href="#aA"/><use transform="matrix(0.0493660477109461,0,0,0.0493660477109461,64.02776388109709,0)" xlink:href="#au"/></g><path fill="#3a414a" d="M182-182c0 78-84 86-111 141h115V0H12c-6-101 99-100 120-180 1-22-12-31-33-32-23 0-32 14-35 34l-49-3c5-45 32-70 84-70 51 0 83 22 83 69" id="aG"/><g id="p"><use transform="matrix(0.0493660477109461,0,0,0.0493660477109461,0,0)" xlink:href="#ap"/><use transform="matrix(0.0493660477109461,0,0,0.0493660477109461,9.873209542189219,0)" xlink:href="#aq"/><use transform="matrix(0.0493660477109461,0,0,0.0493660477109461,14.809814313283828,0)" xlink:href="#aG"/></g><path fill="#3a414a" d="M140-251c80 0 125 45 125 126 0 70-33 111-92 124 6 28 34 38 68 31l-1 36C177 83 129 55 120 2 51-6 15-50 15-125c0-81 44-126 125-126zm-1 214c52 0 73-35 73-88 0-50-21-86-72-86-52 0-73 35-73 86s22 88 72 88" id="aH"/><path fill="#3a414a" d="M123 10C108 53 80 86 19 72V37c35 8 53-11 59-39L3-190h52l48 148c12-52 28-100 44-148h51" id="aI"/><g id="q"><use transform="matrix(0.0493660477109461,0,0,0.0493660477109461,0,0)" xlink:href="#aH"/><use transform="matrix(0.0493660477109461,0,0,0.0493660477109461,13.822493359064907,0)" xlink:href="#az"/><use transform="matrix(0.0493660477109461,0,0,0.0493660477109461,24.633657807762102,0)" xlink:href="#aw"/><use transform="matrix(0.0493660477109461,0,0,0.0493660477109461,34.50686734995132,0)" xlink:href="#ax"/><use transform="matrix(0.0493660477109461,0,0,0.0493660477109461,41.418114029483775,0)" xlink:href="#aI"/></g><g id="r"><use transform="matrix(0.0493660477109461,0,0,0.0493660477109461,0,0)" xlink:href="#aB"/><use transform="matrix(0.0493660477109461,0,0,0.0493660477109461,13.822493359064907,0)" xlink:href="#at"/><use transform="matrix(0.0493660477109461,0,0,0.0493660477109461,18.759098130159515,0)" xlink:href="#au"/><use transform="matrix(0.0493660477109461,0,0,0.0493660477109461,24.6336578077621,0)" xlink:href="#aC"/></g><g id="s"><use transform="matrix(0.0493660477109461,0,0,0.0493660477109461,0,0)" xlink:href="#av"/><use transform="matrix(0.0493660477109461,0,0,0.0493660477109461,9.873209542189219,0)" xlink:href="#aA"/><use transform="matrix(0.0493660477109461,0,0,0.0493660477109461,19.746419084378438,0)" xlink:href="#aA"/><use transform="matrix(0.0493660477109461,0,0,0.0493660477109461,29.619628626567657,0)" xlink:href="#at"/><use transform="matrix(0.0493660477109461,0,0,0.0493660477109461,34.55623339766227,0)" xlink:href="#aD"/><use transform="matrix(0.0493660477109461,0,0,0.0493660477109461,45.36739784635947,0)" xlink:href="#as"/><use transform="matrix(0.0493660477109461,0,0,0.0493660477109461,56.17856229505667,0)" xlink:href="#aE"/><use transform="matrix(0.0493660477109461,0,0,0.0493660477109461,71.97569756255942,0)" xlink:href="#aw"/><use transform="matrix(0.0493660477109461,0,0,0.0493660477109461,81.84890710474863,0)" xlink:href="#as"/><use transform="matrix(0.0493660477109461,0,0,0.0493660477109461,92.66007155344583,0)" xlink:href="#au"/><use transform="matrix(0.0493660477109461,0,0,0.0493660477109461,98.53463123104842,0)" xlink:href="#aA"/></g><path fill="#3a414a" d="M88-194c31-1 46 15 58 34l-1-101h50l1 261h-48c-2-10 0-23-3-31C134-8 116 4 84 4 32 4 16-41 15-95c0-56 19-97 73-99zm17 164c33 0 40-30 41-66 1-37-9-64-41-64s-38 30-39 65c0 43 13 65 39 65" id="aJ"/><g id="t"><use transform="matrix(0.0493660477109461,0,0,0.0493660477109461,0,0)" xlink:href="#av"/><use transform="matrix(0.0493660477109461,0,0,0.0493660477109461,9.873209542189219,0)" xlink:href="#as"/><use transform="matrix(0.0493660477109461,0,0,0.0493660477109461,20.684373990886414,0)" xlink:href="#aJ"/></g><path fill="#3a414a" d="M135-194c52 0 70 43 70 98 0 56-19 99-73 100-30 1-46-15-58-35L72 0H24l1-261h50v104c11-23 29-37 60-37zM114-30c31 0 40-27 40-66 0-37-7-63-39-63s-41 28-41 65c0 36 8 64 40 64" id="aK"/><path fill="#3a414a" d="M190-63c-7 42-38 67-86 67-59 0-84-38-90-98-12-110 154-137 174-36l-49 2c-2-19-15-32-35-32-30 0-35 28-38 64-6 74 65 87 74 30" id="aL"/><g id="u"><use transform="matrix(0.0493660477109461,0,0,0.0493660477109461,0,0)" xlink:href="#ax"/><use transform="matrix(0.0493660477109461,0,0,0.0493660477109461,6.911246679532454,0)" xlink:href="#az"/><use transform="matrix(0.0493660477109461,0,0,0.0493660477109461,17.72241112822965,0)" xlink:href="#aK"/><use transform="matrix(0.0493660477109461,0,0,0.0493660477109461,28.533575576926843,0)" xlink:href="#ax"/><use transform="matrix(0.0493660477109461,0,0,0.0493660477109461,35.4448222564593,0)" xlink:href="#at"/><use transform="matrix(0.0493660477109461,0,0,0.0493660477109461,40.381427027553904,0)" xlink:href="#aL"/><use transform="matrix(0.0493660477109461,0,0,0.0493660477109461,50.25463656974313,0)" xlink:href="#aA"/></g><path fill="#3a414a" d="M128-127c34 4 56 21 59 58 7 91-148 94-172 28-4-9-6-17-7-26l51-5c1 24 16 35 40 36 23 0 39-12 38-36-1-31-31-36-65-34v-40c32 2 59-3 59-33 0-20-13-33-34-33s-33 13-35 32l-50-3c6-44 37-68 86-68 50 0 83 20 83 66 0 35-22 52-53 58" id="aM"/><g id="v"><use transform="matrix(0.0493660477109461,0,0,0.0493660477109461,0,0)" xlink:href="#ap"/><use transform="matrix(0.0493660477109461,0,0,0.0493660477109461,9.873209542189219,0)" xlink:href="#aq"/><use transform="matrix(0.0493660477109461,0,0,0.0493660477109461,14.809814313283828,0)" xlink:href="#aM"/></g><g id="w"><use transform="matrix(0.0493660477109461,0,0,0.0493660477109461,0,0)" xlink:href="#aF"/><use transform="matrix(0.0493660477109461,0,0,0.0493660477109461,12.785806357135039,0)" xlink:href="#aw"/><use transform="matrix(0.0493660477109461,0,0,0.0493660477109461,22.65901589932426,0)" xlink:href="#au"/><use transform="matrix(0.0493660477109461,0,0,0.0493660477109461,28.533575576926843,0)" xlink:href="#az"/><use transform="matrix(0.0493660477109461,0,0,0.0493660477109461,39.344740025624034,0)" xlink:href="#ax"/><use transform="matrix(0.0493660477109461,0,0,0.0493660477109461,46.25598670515649,0)" xlink:href="#as"/></g><path fill="#3a414a" d="M76-208v77h127v40H76V0H24v-248h183v40H76" id="aN"/><path fill="#3a414a" d="M147 0L96-86 75-71V0H25v-261h50v150l67-79h53l-66 74L201 0h-54" id="aO"/><g id="x"><use transform="matrix(0.0493660477109461,0,0,0.0493660477109461,0,0)" xlink:href="#aN"/><use transform="matrix(0.0493660477109461,0,0,0.0493660477109461,10.811164448697195,0)" xlink:href="#aw"/><use transform="matrix(0.0493660477109461,0,0,0.0493660477109461,20.684373990886414,0)" xlink:href="#aw"/><use transform="matrix(0.0493660477109461,0,0,0.0493660477109461,30.557583533075633,0)" xlink:href="#aJ"/><use transform="matrix(0.0493660477109461,0,0,0.0493660477109461,41.36874798177283,0)" xlink:href="#aK"/><use transform="matrix(0.0493660477109461,0,0,0.0493660477109461,52.179912430470026,0)" xlink:href="#av"/><use transform="matrix(0.0493660477109461,0,0,0.0493660477109461,62.05312197265924,0)" xlink:href="#aL"/><use transform="matrix(0.0493660477109461,0,0,0.0493660477109461,71.92633151484846,0)" xlink:href="#aO"/></g><path fill="#3a414a" d="M115-159c48 0 72 30 72 78 0 54-30 85-83 85-64 0-91-50-91-122 0-98 58-163 141-120 15 8 21 24 27 44l-47 6c-5-31-48-31-61-4-7 14-11 33-11 60 9-17 28-27 53-27zM102-35c24 0 36-20 36-45s-11-43-37-43c-23 0-36 14-36 38 0 27 11 50 37 50" id="aP"/><g id="y"><use transform="matrix(0.0493660477109461,0,0,0.0493660477109461,0,0)" xlink:href="#ap"/><use transform="matrix(0.0493660477109461,0,0,0.0493660477109461,9.873209542189219,0)" xlink:href="#aq"/><use transform="matrix(0.0493660477109461,0,0,0.0493660477109461,14.809814313283828,0)" xlink:href="#aP"/></g><g id="z"><use transform="matrix(0.0493660477109461,0,0,0.0493660477109461,0,0)" xlink:href="#ax"/><use transform="matrix(0.0493660477109461,0,0,0.0493660477109461,6.911246679532454,0)" xlink:href="#aw"/><use transform="matrix(0.0493660477109461,0,0,0.0493660477109461,16.784456221721673,0)" xlink:href="#au"/><use transform="matrix(0.0493660477109461,0,0,0.0493660477109461,22.65901589932426,0)" xlink:href="#az"/><use transform="matrix(0.0493660477109461,0,0,0.0493660477109461,33.47018034802146,0)" xlink:href="#ax"/><use transform="matrix(0.0493660477109461,0,0,0.0493660477109461,40.38142702755391,0)" xlink:href="#as"/></g><path fill="#3a414a" d="M121-226c-27-7-43 5-38 36h38v33H83V0H34v-157H6v-33h28c-9-59 32-81 87-68v32" id="aQ"/><g id="A"><use transform="matrix(0.0493660477109461,0,0,0.0493660477109461,0,0)" xlink:href="#aQ"/><use transform="matrix(0.0493660477109461,0,0,0.0493660477109461,5.874559677602585,0)" xlink:href="#aw"/><use transform="matrix(0.0493660477109461,0,0,0.0493660477109461,15.747769219791804,0)" xlink:href="#aw"/><use transform="matrix(0.0493660477109461,0,0,0.0493660477109461,25.620978761981018,0)" xlink:href="#aJ"/><use transform="matrix(0.0493660477109461,0,0,0.0493660477109461,36.43214321067822,0)" xlink:href="#aK"/><use transform="matrix(0.0493660477109461,0,0,0.0493660477109461,47.24330765937542,0)" xlink:href="#av"/><use transform="matrix(0.0493660477109461,0,0,0.0493660477109461,57.11651720156463,0)" xlink:href="#aL"/><use transform="matrix(0.0493660477109461,0,0,0.0493660477109461,66.98972674375385,0)" xlink:href="#aO"/></g><path fill="#3a414a" d="M52 0c1-96 47-148 87-207H15v-41h169v40c-36 62-79 113-81 208H52" id="aR"/><g id="B"><use transform="matrix(0.0493660477109461,0,0,0.0493660477109461,0,0)" xlink:href="#ap"/><use transform="matrix(0.0493660477109461,0,0,0.0493660477109461,9.873209542189219,0)" xlink:href="#aq"/><use transform="matrix(0.0493660477109461,0,0,0.0493660477109461,14.809814313283828,0)" xlink:href="#aR"/></g><path fill="#3a414a" d="M24-248c93 1 206-16 204 79-1 75-69 88-152 82V0H24v-248zm52 121c47 0 100 7 100-41 0-47-54-39-100-39v80" id="aS"/><path fill="#3a414a" d="M110-194c64 0 96 36 96 99 0 64-35 99-97 99-61 0-95-36-95-99 0-62 34-99 96-99zm-1 164c35 0 45-28 45-65 0-40-10-65-43-65-34 0-45 26-45 65 0 36 10 65 43 65" id="aT"/><path fill="#3a414a" d="M128 0H69L1-190h53L99-40l48-150h52" id="aU"/><g id="C"><use transform="matrix(0.0493660477109461,0,0,0.0493660477109461,0,0)" xlink:href="#aS"/><use transform="matrix(0.0493660477109461,0,0,0.0493660477109461,11.847851450627063,0)" xlink:href="#ax"/><use transform="matrix(0.0493660477109461,0,0,0.0493660477109461,18.759098130159515,0)" xlink:href="#aT"/><use transform="matrix(0.0493660477109461,0,0,0.0493660477109461,29.570262578856713,0)" xlink:href="#aU"/><use transform="matrix(0.0493660477109461,0,0,0.0493660477109461,39.44347212104593,0)" xlink:href="#at"/><use transform="matrix(0.0493660477109461,0,0,0.0493660477109461,44.380076892140536,0)" xlink:href="#aJ"/><use transform="matrix(0.0493660477109461,0,0,0.0493660477109461,55.191241340837735,0)" xlink:href="#aw"/></g><path d="M205 0l-28-72H64L36 0H1l101-248h38L239 0h-34zm-38-99l-47-123c-12 45-31 82-46 123h93" id="aV"/><path d="M100-194c62-1 85 37 85 99 1 63-27 99-86 99S16-35 15-95c0-66 28-99 85-99zM99-20c44 1 53-31 53-75 0-43-8-75-51-75s-53 32-53 75 10 74 51 75" id="aW"/><path d="M114-163C36-179 61-72 57 0H25l-1-190h30c1 12-1 29 2 39 6-27 23-49 58-41v29" id="aX"/><g id="D"><use transform="matrix(0.04938271604938272,0,0,0.04938271604938272,0,0)" xlink:href="#aV"/><use transform="matrix(0.04938271604938272,0,0,0.04938271604938272,11.851851851851853,0)" xlink:href="#U"/><use transform="matrix(0.04938271604938272,0,0,0.04938271604938272,20.74074074074074,0)" xlink:href="#ab"/><use transform="matrix(0.04938271604938272,0,0,0.04938271604938272,25.679012345679016,0)" xlink:href="#aW"/><use transform="matrix(0.04938271604938272,0,0,0.04938271604938272,35.55555555555556,0)" xlink:href="#aX"/></g><path fill="#333" d="M30-248c118-7 216 8 213 122C240-48 200 0 122 0H30v-248zM63-27c89 8 146-16 146-99s-60-101-146-95v194" id="aY"/><path fill="#333" d="M141-36C126-15 110 5 73 4 37 3 15-17 15-53c-1-64 63-63 125-63 3-35-9-54-41-54-24 1-41 7-42 31l-33-3c5-37 33-52 76-52 45 0 72 20 72 64v82c-1 20 7 32 28 27v20c-31 9-61-2-59-35zM48-53c0 20 12 33 32 33 41-3 63-29 60-74-43 2-92-5-92 41" id="aZ"/><path fill="#333" d="M115-194c53 0 69 39 70 98 0 66-23 100-70 100C84 3 66-7 56-30L54 0H23l1-261h32v101c10-23 28-34 59-34zm-8 174c40 0 45-34 45-75 0-40-5-75-45-74-42 0-51 32-51 76 0 43 10 73 51 73" id="ba"/><g id="E"><use transform="matrix(0.06172839505555555,0,0,0.06172839505555555,0,0)" xlink:href="#aY"/><use transform="matrix(0.06172839505555555,0,0,0.06172839505555555,15.987654319388888,0)" xlink:href="#aZ"/><use transform="matrix(0.06172839505555555,0,0,0.06172839505555555,28.333333330499997,0)" xlink:href="#ak"/><use transform="matrix(0.06172839505555555,0,0,0.06172839505555555,34.506172836055555,0)" xlink:href="#aZ"/><use transform="matrix(0.06172839505555555,0,0,0.06172839505555555,46.851851847166664,0)" xlink:href="#ba"/><use transform="matrix(0.06172839505555555,0,0,0.06172839505555555,59.19753085827777,0)" xlink:href="#aZ"/><use transform="matrix(0.06172839505555555,0,0,0.06172839505555555,71.54320986938889,0)" xlink:href="#ad"/><use transform="matrix(0.06172839505555555,0,0,0.06172839505555555,82.65432097938888,0)" xlink:href="#ae"/></g><path d="M27 0v-27h64v-190l-56 39v-29l58-41h29v221h61V0H27" id="bb"/><path d="M33 0v-38h34V0H33" id="bc"/><path d="M155-56V0h-30v-56H8v-25l114-167h33v167h35v25h-35zm-30-156c-27 46-58 90-88 131h88v-131" id="bd"/><g id="F"><use transform="matrix(0.05,0,0,0.05,0,0)" xlink:href="#bb"/><use transform="matrix(0.05,0,0,0.05,10,0)" xlink:href="#bc"/><use transform="matrix(0.05,0,0,0.05,15,0)" xlink:href="#bd"/></g><path d="M185-189c-5-48-123-54-124 2 14 75 158 14 163 119 3 78-121 87-175 55-17-10-28-26-33-46l33-7c5 56 141 63 141-1 0-78-155-14-162-118-5-82 145-84 179-34 5 7 8 16 11 25" id="be"/><path d="M108 0H70L1-190h34L89-25l56-165h34" id="bf"/><g id="G"><use transform="matrix(0.05,0,0,0.05,0,0)" xlink:href="#be"/><use transform="matrix(0.05,0,0,0.05,12,0)" xlink:href="#T"/><use transform="matrix(0.05,0,0,0.05,22,0)" xlink:href="#bf"/><use transform="matrix(0.05,0,0,0.05,31,0)" xlink:href="#Q"/></g><path d="M101-234c-31-9-42 10-38 44h38v23H63V0H32v-167H5v-23h27c-7-52 17-82 69-68v24" id="bg"/><g id="H"><use transform="matrix(0.05,0,0,0.05,0,0)" xlink:href="#bg"/><use transform="matrix(0.05,0,0,0.05,5,0)" xlink:href="#Q"/><use transform="matrix(0.05,0,0,0.05,15,0)" xlink:href="#Q"/><use transform="matrix(0.05,0,0,0.05,25,0)" xlink:href="#R"/><use transform="matrix(0.05,0,0,0.05,35,0)" xlink:href="#S"/><use transform="matrix(0.05,0,0,0.05,45,0)" xlink:href="#T"/><use transform="matrix(0.05,0,0,0.05,55,0)" xlink:href="#U"/><use transform="matrix(0.05,0,0,0.05,64,0)" xlink:href="#V"/></g><g id="I"><use transform="matrix(0.05,0,0,0.05,0,0)" xlink:href="#T"/><use transform="matrix(0.05,0,0,0.05,10,0)" xlink:href="#W"/><use transform="matrix(0.05,0,0,0.05,20,0)" xlink:href="#R"/></g><g id="J"><use transform="matrix(0.05,0,0,0.05,0,0)" xlink:href="#Y"/><use transform="matrix(0.05,0,0,0.05,3.95,0)" xlink:href="#ab"/><use transform="matrix(0.05,0,0,0.05,8.95,0)" xlink:href="#X"/></g><g id="K"><use transform="matrix(0.05,0,0,0.05,0,0)" xlink:href="#Y"/><use transform="matrix(0.05,0,0,0.05,3.95,0)" xlink:href="#W"/><use transform="matrix(0.05,0,0,0.05,13.949999999999998,0)" xlink:href="#bg"/><use transform="matrix(0.05,0,0,0.05,18.95,0)" xlink:href="#aW"/><use transform="matrix(0.05,0,0,0.05,28.950000000000003,0)" xlink:href="#aX"/><use transform="matrix(0.05,0,0,0.05,34.9,0)" xlink:href="#aa"/><use transform="matrix(0.05,0,0,0.05,49.85,0)" xlink:href="#T"/><use transform="matrix(0.05,0,0,0.05,59.85,0)" xlink:href="#ab"/><use transform="matrix(0.05,0,0,0.05,64.85,0)" xlink:href="#Y"/><use transform="matrix(0.05,0,0,0.05,68.8,0)" xlink:href="#aW"/><use transform="matrix(0.05,0,0,0.05,78.8,0)" xlink:href="#W"/></g><path d="M54-142c48-35 137-8 131 61C196 18 31 33 14-55l32-4c7 23 22 37 52 37 35-1 51-22 54-58 4-55-73-65-99-34H22l8-134h141v27H59" id="bh"/><g id="L"><use transform="matrix(0.05,0,0,0.05,0,0)" xlink:href="#bb"/><use transform="matrix(0.05,0,0,0.05,10,0)" xlink:href="#bc"/><use transform="matrix(0.05,0,0,0.05,15,0)" xlink:href="#bh"/></g><path d="M84 4C-5 8 30-112 23-190h32v120c0 31 7 50 39 49 72-2 45-101 50-169h31l1 190h-30c-1-10 1-25-2-33-11 22-28 36-60 37" id="bi"/><g id="M"><use transform="matrix(0.05,0,0,0.05,0,0)" xlink:href="#aX"/><use transform="matrix(0.05,0,0,0.05,5.95,0)" xlink:href="#Q"/><use transform="matrix(0.05,0,0,0.05,15.949999999999998,0)" xlink:href="#ab"/><use transform="matrix(0.05,0,0,0.05,20.95,0)" xlink:href="#bi"/><use transform="matrix(0.05,0,0,0.05,30.950000000000003,0)" xlink:href="#aX"/><use transform="matrix(0.05,0,0,0.05,36.9,0)" xlink:href="#W"/></g><path d="M24 0v-261h32V0H24" id="bj"/><g id="N"><use transform="matrix(0.05,0,0,0.05,0,0)" xlink:href="#ab"/><use transform="matrix(0.05,0,0,0.05,5,0)" xlink:href="#aX"/><use transform="matrix(0.05,0,0,0.05,10.95,0)" xlink:href="#T"/><use transform="matrix(0.05,0,0,0.05,20.95,0)" xlink:href="#W"/><use transform="matrix(0.05,0,0,0.05,30.950000000000003,0)" xlink:href="#X"/><use transform="matrix(0.05,0,0,0.05,39.95,0)" xlink:href="#T"/><use transform="matrix(0.05,0,0,0.05,49.95,0)" xlink:href="#U"/><use transform="matrix(0.05,0,0,0.05,58.95,0)" xlink:href="#ab"/><use transform="matrix(0.05,0,0,0.05,63.95,0)" xlink:href="#Y"/><use transform="matrix(0.05,0,0,0.05,67.9,0)" xlink:href="#aW"/><use transform="matrix(0.05,0,0,0.05,77.9,0)" xlink:href="#W"/><use transform="matrix(0.05,0,0,0.05,87.9,0)" xlink:href="#T"/><use transform="matrix(0.05,0,0,0.05,97.9,0)" xlink:href="#bj"/></g><path d="M179-190L93 31C79 59 56 82 12 73V49c39 6 53-20 64-50L1-190h34L92-34l54-156h33" id="bk"/><g id="O"><use transform="matrix(0.05,0,0,0.05,0,0)" xlink:href="#X"/><use transform="matrix(0.05,0,0,0.05,9,0)" xlink:href="#bi"/><use transform="matrix(0.05,0,0,0.05,19,0)" xlink:href="#U"/><use transform="matrix(0.05,0,0,0.05,28,0)" xlink:href="#U"/><use transform="matrix(0.05,0,0,0.05,37,0)" xlink:href="#Q"/><use transform="matrix(0.05,0,0,0.05,47,0)" xlink:href="#X"/><use transform="matrix(0.05,0,0,0.05,56,0)" xlink:href="#X"/><use transform="matrix(0.05,0,0,0.05,65,0)" xlink:href="#bg"/><use transform="matrix(0.05,0,0,0.05,70,0)" xlink:href="#bi"/><use transform="matrix(0.05,0,0,0.05,80,0)" xlink:href="#bj"/><use transform="matrix(0.05,0,0,0.05,83.95,0)" xlink:href="#bj"/><use transform="matrix(0.05,0,0,0.05,87.9,0)" xlink:href="#bk"/></g></defs></g></svg>